<?xml version="1.0" encoding="utf-8"?>
<!-- Generator: Adobe Illustrator 23.0.2, SVG Export Plug-In . SVG Version: 6.00 Build 0)  -->
<svg version="1.1" id="Layer_2" xmlns="http://www.w3.org/2000/svg" xmlns:xlink="http://www.w3.org/1999/xlink" x="0px" y="0px"
	 viewBox="0 0 179.55 95.76" style="enable-background:new 0 0 179.55 95.76;" xml:space="preserve">
<style type="text/css">
	.st0{opacity:0.56;fill:#6EB75E;stroke:#6EB75E;stroke-width:4.252;stroke-miterlimit:10;}
	.st1{fill:none;stroke:#7FC4CB;stroke-width:4.252;stroke-miterlimit:10;}
	.st2{fill:none;stroke:#6EB75E;stroke-width:4.252;stroke-miterlimit:10;}
	
		.st3{opacity:0.56;fill:#6EB75E;stroke:#6EB75E;stroke-width:4.252;stroke-linecap:round;stroke-linejoin:round;stroke-miterlimit:10;}
</style>
<path class="st0" d="M61.15,40.8c-1.17,3.36-1.81,6.96-1.81,10.72c0,12.06,6.54,22.58,16.27,28.23c2.92-7.6,2.2-21.13-1.33-28.23
	C71.66,46.27,66.33,42.49,61.15,40.8z"/>
<circle class="st1" cx="91.97" cy="51.52" r="32.63"/>
<path class="st2" d="M61.15,40.8c-1.17,3.36-1.81,6.96-1.81,10.72c0,12.06,6.54,22.58,16.27,28.23c2.92-7.6,2.2-21.13-1.33-28.23
	C71.66,46.27,66.33,42.49,61.15,40.8z"/>
<path class="st2" d="M108.52,78.37c-2.34,1.41-5.68,2.53-4.4,3.44c12-4.82,20.48-16.56,20.48-30.29c0-10.74-5.19-20.27-13.21-26.22
	c-11.08,6.12-20.28,15.03-18.34,22.58C95.55,57.55,130.61,65.1,108.52,78.37z"/>
<path class="st3" d="M108.52,78.37c-2.34,1.41-5.36,3.09-4.4,3.44c12-4.82,20.48-16.56,20.48-30.29c0-10.74-5.19-20.27-13.21-26.22
	c-11.08,6.12-20.28,15.03-18.34,22.58C95.55,57.55,130.61,65.1,108.52,78.37z"/>
</svg>
