<?xml version="1.0" encoding="utf-8"?>
<!-- Generator: Adobe Illustrator 23.0.2, SVG Export Plug-In . SVG Version: 6.00 Build 0)  -->
<svg version="1.1" id="Layer_2" xmlns="http://www.w3.org/2000/svg" xmlns:xlink="http://www.w3.org/1999/xlink" x="0px" y="0px"
	 viewBox="0 0 179.55 95.76" style="enable-background:new 0 0 179.55 95.76;" xml:space="preserve">
<style type="text/css">
	.st0{fill:none;stroke:#BC3830;stroke-width:4.252;stroke-miterlimit:10;}
	.st1{fill:none;stroke:#F0493F;stroke-width:4.252;stroke-miterlimit:10;}
	.st2{fill:none;stroke:#BC3830;stroke-width:4.252;stroke-linecap:round;stroke-linejoin:round;stroke-miterlimit:10;}
</style>
<ellipse transform="matrix(0.1981 -0.9802 0.9802 0.1981 4.2757 137.3034)" class="st0" cx="86.05" cy="66.04" rx="5.96" ry="8.42"/>
<path class="st1" d="M68.14,29.23c7.19,4.68,17.59,10.1,29.01,10.68c10.18,0.51,18.91,0.72,25.51,0.52"/>
<path class="st2" d="M124.6,51.52c0-0.55-0.01-1.09-0.04-1.63c-8.51,1.07-20.03,2.19-23.64,1.63c3.07,1.22,13.76,3.65,23.18,5.69
	C124.43,55.36,124.6,53.46,124.6,51.52z"/>
<path class="st2" d="M59.88,45.63c11.45,0.86,28.51,1.96,32.91,1.18c-3.06-0.2-16.73-5.06-29.92-10.05
	C61.47,39.51,60.45,42.49,59.88,45.63z"/>
<path class="st1" d="M107.83,64.36c-8.01-4-24.51-13.47-34.71-10.56c-10.19,2.91-5.58,23.42,14.68,23.3
	c11.17-0.07,19.94-1.1,26.42-1.72c3.04-2.84,5.54-6.25,7.32-10.07C117.16,66.63,113.45,67.17,107.83,64.36z"/>
<circle class="st1" cx="91.97" cy="51.52" r="32.63"/>
</svg>
