<?xml version="1.0" encoding="utf-8"?>
<!-- Generator: Adobe Illustrator 23.0.2, SVG Export Plug-In . SVG Version: 6.00 Build 0)  -->
<svg version="1.1" id="Layer_2" xmlns="http://www.w3.org/2000/svg" xmlns:xlink="http://www.w3.org/1999/xlink" x="0px" y="0px"
	 viewBox="0 0 179.55 95.76" style="enable-background:new 0 0 179.55 95.76;" xml:space="preserve">
<style type="text/css">
	.st0{fill:none;stroke:#F0493F;stroke-width:4.252;stroke-miterlimit:10;}
	.st1{opacity:0.57;fill:#FFFFFF;stroke:#FFFFFF;stroke-width:4.252;stroke-miterlimit:10;}
	.st2{fill:none;stroke:#FFFFFF;stroke-width:4.252;stroke-miterlimit:10;}
</style>
<circle class="st0" cx="91.97" cy="51.52" r="32.63"/>
<ellipse class="st0" cx="81.08" cy="36.2" rx="4.79" ry="4.31"/>
<ellipse class="st0" cx="113.17" cy="54.33" rx="6.92" ry="5.64"/>
<ellipse class="st0" cx="85.63" cy="70.91" rx="8.25" ry="6.98"/>
<ellipse class="st0" cx="70.54" cy="52.34" rx="8.43" ry="7.64"/>
<ellipse class="st0" cx="88.9" cy="56.33" rx="8.43" ry="7.64"/>
<ellipse class="st0" cx="102.16" cy="35.88" rx="12.39" ry="7.91"/>
<path class="st0" d="M116.19,73.38c3.12-3.46,5.52-7.59,6.94-12.15c-0.05,0-0.1-0.01-0.15-0.01c-4.66,0-8.43,3.42-8.43,7.64
	C114.55,70.56,115.17,72.12,116.19,73.38z"/>
<path class="st0" d="M102.92,68.87c-4.66,0-8.43,3.42-8.43,7.64c0,3,1.91,5.58,4.68,6.83c4.42-1,8.5-2.89,12.05-5.48
	c0.09-0.44,0.14-0.89,0.14-1.36C111.35,72.29,107.58,68.87,102.92,68.87z"/>
<path class="st1" d="M79.99,21.17c1.75,3.04,7.57,5.27,14.5,5.27c5.59,0,10.45-1.45,13.05-3.6c-4.63-2.52-9.93-3.95-15.57-3.95
	C87.74,18.88,83.7,19.7,79.99,21.17z"/>
<path class="st2" d="M79.99,21.17c1.75,3.04,7.57,5.27,14.5,5.27c5.59,0,10.45-1.45,13.05-3.6c-4.63-2.52-9.93-3.95-15.57-3.95
	C87.74,18.88,83.7,19.7,79.99,21.17z"/>
</svg>
