<?xml version="1.0" encoding="utf-8"?>
<!-- Generator: Adobe Illustrator 23.0.2, SVG Export Plug-In . SVG Version: 6.00 Build 0)  -->
<svg version="1.1" id="Layer_2" xmlns="http://www.w3.org/2000/svg" xmlns:xlink="http://www.w3.org/1999/xlink" x="0px" y="0px"
	 viewBox="0 0 179.55 95.76" style="enable-background:new 0 0 179.55 95.76;" xml:space="preserve">
<style type="text/css">
	.st0{fill:none;stroke:#B0CDD5;stroke-width:4.252;stroke-miterlimit:10;}
</style>
<circle class="st0" cx="91.97" cy="51.52" r="32.63"/>
<circle class="st0" cx="95.56" cy="32.76" r="5.79"/>
<circle class="st0" cx="74.41" cy="45.9" r="3.45"/>
<circle class="st0" cx="97.36" cy="76.06" r="7.59"/>
<circle class="st0" cx="117.52" cy="50.74" r="4.84"/>
<circle class="st0" cx="103.64" cy="56.66" r="3.79"/>
<circle class="st0" cx="79.45" cy="64.35" r="5.04"/>
<circle class="st0" cx="67.78" cy="56.66" r="3.18"/>
<circle class="st0" cx="91.55" cy="49.91" r="4.01"/>
<circle class="st0" cx="78.89" cy="29.56" r="5.94"/>
<path class="st0" d="M123.27,42.3c-2.24-7.6-7.17-14.05-13.69-18.24c-1.35,1.94-2.15,4.3-2.15,6.85c0,6.64,5.38,12.02,12.02,12.02
	C120.79,42.93,122.07,42.7,123.27,42.3z"/>
<path class="st0" d="M119.32,61.24c-4.73,0-8.57,3.84-8.57,8.57c0,2.47,1.05,4.69,2.72,6.25c4.26-3.74,7.53-8.56,9.4-14.04
	C121.79,61.52,120.59,61.24,119.32,61.24z"/>
</svg>
