<?xml version="1.0" encoding="utf-8"?>
<!-- Generator: Adobe Illustrator 23.0.2, SVG Export Plug-In . SVG Version: 6.00 Build 0)  -->
<svg version="1.1" id="Layer_2" xmlns="http://www.w3.org/2000/svg" xmlns:xlink="http://www.w3.org/1999/xlink" x="0px" y="0px"
	 viewBox="0 0 164.14 161.11" style="enable-background:new 0 0 164.14 161.11;" xml:space="preserve">
<style type="text/css">
	.st0{fill:none;stroke:#FFFFFF;stroke-width:4.252;stroke-miterlimit:10;}
	.st1{fill:none;stroke:#FFFFFF;stroke-width:4.252;stroke-linecap:round;stroke-linejoin:round;stroke-miterlimit:10;}
</style>
<circle class="st0" cx="89.48" cy="86.17" r="26.43"/>
<path class="st1" d="M41.9,86.17c0-26.28,21.3-47.58,47.58-47.58s47.58,21.3,47.58,47.58c0,18.01-10.01,33.68-24.76,41.76"/>
<g>
	<line class="st1" x1="72.24" y1="75.17" x2="63.54" y2="83.86"/>
	<line class="st1" x1="80.2" y1="76.64" x2="64.03" y2="92.81"/>
	<line class="st1" x1="88.17" y1="78.11" x2="66.76" y2="99.52"/>
	<line class="st1" x1="96.13" y1="79.58" x2="70.82" y2="104.9"/>
	<line class="st1" x1="97.6" y1="87.55" x2="76.23" y2="108.92"/>
	<line class="st1" x1="99.07" y1="95.51" x2="82.97" y2="111.62"/>
	<line class="st1" x1="100.55" y1="103.48" x2="91.85" y2="112.17"/>
</g>
<g>
	<line class="st1" x1="93.51" y1="53.9" x2="84.82" y2="62.59"/>
	<line class="st1" x1="101.47" y1="55.37" x2="85.3" y2="71.54"/>
	<line class="st1" x1="109.44" y1="56.84" x2="88.03" y2="78.25"/>
	<line class="st1" x1="117.41" y1="58.31" x2="92.09" y2="83.62"/>
	<line class="st1" x1="118.88" y1="66.27" x2="97.51" y2="87.64"/>
	<line class="st1" x1="120.35" y1="74.24" x2="104.24" y2="90.35"/>
	<line class="st1" x1="121.82" y1="82.21" x2="113.13" y2="90.9"/>
</g>
<circle class="st0" cx="133.48" cy="29.17" r="8.7"/>
<circle class="st0" cx="41.9" cy="92.67" r="6.48"/>
<path class="st1" d="M140.04,37.85c12.01,12.56,19.38,29.58,19.38,48.33c0,38.63-31.31,69.94-69.94,69.94"/>
<path class="st1" d="M51.44,132.51c-13.29-10.97-21.76-27.56-21.76-46.14c0-33.02,26.77-59.79,59.79-59.79s59.79,26.77,59.79,59.79"
	/>
<g>
	<circle class="st0" cx="63.98" cy="139.38" r="14.46"/>
	<path class="st0" d="M72.97,128.06c7.89-1,13.71-0.14,14.5,2.58c1.14,3.92-8.65,10.22-21.87,14.06c-13.22,3.85-24.86,3.78-26-0.14
		c-0.78-2.69,3.59-6.51,10.7-9.88"/>
</g>
<circle class="st0" cx="149.27" cy="90.35" r="3.18"/>
<circle class="st0" cx="56.51" cy="11.22" r="6.99"/>
<path class="st1" d="M63.02,8.68c8.32-2.73,17.22-4.21,26.45-4.21"/>
<path class="st1" d="M9.52,117.39c-3.1-8.81-4.79-18.29-4.79-28.16c0-32.62,18.42-60.93,45.43-75.1"/>
</svg>
