<?xml version="1.0" encoding="utf-8"?>
<!-- Generator: Adobe Illustrator 23.0.2, SVG Export Plug-In . SVG Version: 6.00 Build 0)  -->
<svg version="1.1" id="Layer_2" xmlns="http://www.w3.org/2000/svg" xmlns:xlink="http://www.w3.org/1999/xlink" x="0px" y="0px"
	 viewBox="0 0 136.32 136.36" style="enable-background:new 0 0 136.32 136.36;" xml:space="preserve">
<style type="text/css">
	.st0{fill:none;stroke:#FFFFFF;stroke-width:4.252;stroke-linecap:round;stroke-linejoin:round;stroke-miterlimit:10;}
</style>
<g>
	<line class="st0" x1="33.48" y1="125.12" x2="48.79" y2="109.81"/>
	<line class="st0" x1="18.25" y1="118.07" x2="29.43" y2="106.89"/>
	<line class="st0" x1="11.24" y1="102.79" x2="26.51" y2="87.53"/>
</g>
<circle class="st0" cx="103.72" cy="32.6" r="15.45"/>
<path class="st0" d="M34.57,102.36l-0.61-0.61C30.44,98.24,60.8,62.12,60.8,62.12c3.52-3.52,9.27-3.52,12.79,0l0.61,0.61
	c3.52,3.52,3.52,9.27,0,12.79C74.2,75.52,38.08,105.88,34.57,102.36z"/>
<path class="st0" d="M30.34,59.64L49.6,38.13l-6.37-6.37c-2.66-2.66-7.84-2.97-11.58,0.76L0.21,67.54
	c-2.27,2.27,14.45-11.57,22.43-3.6c3,3,5.79,5.79,8.28,8.28l-0.57-0.57C27.02,68.33,27.02,62.96,30.34,59.64z"/>
<path class="st0" d="M104.6,93.13l-6.41-6.41l-21.51,19.26c-3.32,3.32-8.69,3.32-12.01,0l-0.53-0.53c2.49,2.49,5.28,5.28,8.28,8.28
	c7.98,7.98-5.87,24.7-3.6,22.43l35.02-31.44C107.58,100.98,107.26,95.79,104.6,93.13z"/>
<path class="st0" d="M130.51,5.81c0,0-33.66-17.45-59.22,8.11L30.34,59.64c-3.32,3.32-3.32,8.69,0,12.01l12.84,12.84
	C51,73.78,60.8,62.12,60.8,62.12c3.52-3.52,9.27-3.52,12.79,0l0.61,0.61c3.52,3.52,3.52,9.27,0,12.79c0,0-11.66,9.8-22.37,17.62
	l12.84,12.84c3.32,3.32,8.69,3.32,12.01,0l45.72-40.95C147.96,39.48,130.51,5.81,130.51,5.81z"/>
<g>
	<path class="st0" d="M51.83,93.14c-2.9,2.12-5.74,4.09-8.25,5.69l8.96,8.96c1.92,1.92,5.05,1.92,6.97,0
		c1.92-1.92,3.49-3.48,3.49-3.48L51.83,93.14z"/>
	<path class="st0" d="M43.18,84.49L32.03,73.33c0,0-1.57,1.57-3.48,3.49c-1.92,1.92-1.92,5.05,0,6.97l8.96,8.96
		C39.09,90.23,41.06,87.4,43.18,84.49z"/>
</g>
</svg>
