<?xml version="1.0" encoding="utf-8"?>
<!-- Generator: Adobe Illustrator 23.0.2, SVG Export Plug-In . SVG Version: 6.00 Build 0)  -->
<svg version="1.1" id="Layer_2" xmlns="http://www.w3.org/2000/svg" xmlns:xlink="http://www.w3.org/1999/xlink" x="0px" y="0px"
	 viewBox="0 0 170.4 171.16" style="enable-background:new 0 0 170.4 171.16;" xml:space="preserve">
<style type="text/css">
	.st0{fill:none;stroke:#FFFFFF;stroke-width:4.252;stroke-linecap:round;stroke-linejoin:round;stroke-miterlimit:10;}
</style>
<g>
	<line class="st0" x1="43.84" y1="154.64" x2="61.86" y2="136.63"/>
	<line class="st0" x1="25.92" y1="146.35" x2="39.07" y2="133.2"/>
	<line class="st0" x1="17.68" y1="128.38" x2="35.64" y2="110.42"/>
</g>
<circle class="st0" cx="126.48" cy="45.8" r="18.18"/>
<path class="st0" d="M45.12,127.87l-0.72-0.72c-4.14-4.14,31.58-46.63,31.58-46.63c4.14-4.14,10.91-4.14,15.04,0l0.72,0.72
	c4.14,4.14,4.14,10.91,0,15.04C91.75,96.29,49.26,132.01,45.12,127.87z"/>
<path class="st0" d="M40.15,77.61l22.66-25.3l-7.49-7.49c-3.13-3.13-9.23-3.5-13.63,0.9L4.7,86.91c-2.68,2.68,17-13.62,26.38-4.23
	c3.53,3.53,6.81,6.81,9.74,9.74l-0.67-0.67C36.25,87.84,36.25,81.51,40.15,77.61z"/>
<path class="st0" d="M127.51,117.01l-7.55-7.55l-25.3,22.66c-3.9,3.9-10.23,3.9-14.13,0l-0.62-0.62c2.93,2.93,6.21,6.21,9.74,9.74
	c9.38,9.38-6.91,29.06-4.23,26.38l41.2-36.99C131.01,126.24,130.64,120.14,127.51,117.01z"/>
<path class="st0" d="M157.99,14.28c0,0-39.6-20.53-69.67,9.54L40.15,77.61c-3.9,3.9-3.9,10.23,0,14.13l15.11,15.11
	c9.2-12.6,20.73-26.32,20.73-26.32c4.14-4.14,10.91-4.14,15.04,0l0.72,0.72c4.14,4.14,4.14,10.91,0,15.04
	c0,0-13.72,11.53-26.32,20.73l15.11,15.11c3.9,3.9,10.23,3.9,14.13,0l53.79-48.17C178.52,53.89,157.99,14.28,157.99,14.28z"/>
<g>
	<path class="st0" d="M65.43,117.02c-3.42,2.49-6.75,4.82-9.71,6.69l10.54,10.54c2.25,2.25,5.94,2.25,8.2,0
		c2.25-2.25,4.1-4.1,4.1-4.1L65.43,117.02z"/>
	<path class="st0" d="M55.26,106.85L42.13,93.72c0,0-1.84,1.85-4.1,4.1c-2.25,2.25-2.25,5.94,0,8.2l10.54,10.54
		C50.44,113.6,52.76,110.26,55.26,106.85z"/>
</g>
</svg>
