<?xml version="1.0" encoding="utf-8"?>
<!-- Generator: Adobe Illustrator 23.0.2, SVG Export Plug-In . SVG Version: 6.00 Build 0)  -->
<svg version="1.1" id="Layer_1" xmlns="http://www.w3.org/2000/svg" xmlns:xlink="http://www.w3.org/1999/xlink" x="0px" y="0px"
	 viewBox="0 0 170.4 171.2" style="enable-background:new 0 0 170.4 171.2;" xml:space="preserve">
<style type="text/css">
	.st0{fill:none;stroke:#FFFFFF;stroke-width:3.8;stroke-linecap:round;stroke-linejoin:round;stroke-miterlimit:10;}
</style>
<g>
	<line class="st0" x1="49.4" y1="142.5" x2="63" y2="129"/>
	<line class="st0" x1="36" y1="136.3" x2="45.9" y2="126.4"/>
	<line class="st0" x1="29.8" y1="122.8" x2="43.3" y2="109.3"/>
</g>
<circle class="st0" cx="116" cy="56.3" r="13.6"/>
<path class="st0" d="M55,117.8l-0.5-0.5c-3.1-3.1,23.7-35,23.7-35c3.1-3.1,8.2-3.1,11.3,0l0.5,0.5c3.1,3.1,3.1,8.2,0,11.3
	C90,94.1,58.1,120.9,55,117.8z"/>
<path class="st0" d="M51.3,80.1l17-19l-5.6-5.6c-2.3-2.3-6.9-2.6-10.2,0.7L24.7,87.1c-2,2,12.7-10.2,19.8-3.2
	c2.6,2.6,5.1,5.1,7.3,7.3l-0.5-0.5C48.3,87.8,48.3,83,51.3,80.1z"/>
<path class="st0" d="M116.8,109.7l-5.7-5.7l-19,17c-2.9,2.9-7.7,2.9-10.6,0l-0.5-0.5c2.2,2.2,4.7,4.7,7.3,7.3c7,7-5.2,21.8-3.2,19.8
	l30.9-27.7C119.4,116.6,119.1,112,116.8,109.7z"/>
<path class="st0" d="M139.7,32.6c0,0-29.7-15.4-52.3,7.2L51.3,80.1c-2.9,2.9-2.9,7.7,0,10.6l11.3,11.3c6.9-9.5,15.5-19.7,15.5-19.7
	c3.1-3.1,8.2-3.1,11.3,0l0.5,0.5c3.1,3.1,3.1,8.2,0,11.3c0,0-10.3,8.6-19.7,15.5L81.6,121c2.9,2.9,7.7,2.9,10.6,0l40.3-36.1
	C155.1,62.3,139.7,32.6,139.7,32.6z"/>
<g>
	<path class="st0" d="M70.2,109.7c-2.6,1.9-5.1,3.6-7.3,5l7.9,7.9c1.7,1.7,4.5,1.7,6.1,0c1.7-1.7,3.1-3.1,3.1-3.1L70.2,109.7z"/>
	<path class="st0" d="M62.6,102.1l-9.8-9.8c0,0-1.4,1.4-3.1,3.1c-1.7,1.7-1.7,4.5,0,6.1l7.9,7.9C59,107.1,60.7,104.6,62.6,102.1z"/>
</g>
</svg>
