<?xml version="1.0" encoding="utf-8"?>
<!-- Generator: Adobe Illustrator 23.0.2, SVG Export Plug-In . SVG Version: 6.00 Build 0)  -->
<svg version="1.1" id="Layer_2" xmlns="http://www.w3.org/2000/svg" xmlns:xlink="http://www.w3.org/1999/xlink" x="0px" y="0px"
	 viewBox="0 0 179.55 95.76" style="enable-background:new 0 0 179.55 95.76;" xml:space="preserve">
<style type="text/css">
	.st0{fill:none;stroke:#C7C613;stroke-width:4.252;stroke-miterlimit:10;}
	.st1{fill:none;stroke:#C7C613;stroke-width:4.252;stroke-linecap:round;stroke-linejoin:round;stroke-miterlimit:10;}
	.st2{opacity:0.41;fill:#C7C613;stroke:#C7C613;stroke-width:4.252;stroke-miterlimit:10;}
</style>
<circle class="st0" cx="91.97" cy="51.52" r="32.63"/>
<path class="st1" d="M64.9,33.29l45.17-8.93c-0.29-0.19-0.59-0.38-0.88-0.57l-43.67,8.63C65.3,32.71,65.1,33,64.9,33.29z"/>
<path class="st0" d="M59.4,49.59l61.97-12.25c-0.98-2.04-2.18-3.95-3.55-5.73L60.48,42.95C59.9,45.08,59.53,47.31,59.4,49.59z"/>
<path class="st2" d="M59.4,49.59l61.97-12.25c-0.98-2.04-2.18-3.95-3.55-5.73L60.48,42.95C59.9,45.08,59.53,47.31,59.4,49.59z"/>
<path class="st2" d="M64.92,69.78l59.02-11.67c0.44-2.13,0.67-4.33,0.67-6.59c0-1.9-0.17-3.76-0.48-5.57L60.12,58.61
	C61.02,62.67,62.66,66.44,64.92,69.78z"/>
<path class="st0" d="M64.92,69.78l59.02-11.67c0.44-2.13,0.67-4.33,0.67-6.59c0-1.9-0.17-3.76-0.48-5.57L60.12,58.61
	C61.02,62.67,62.66,66.44,64.92,69.78z"/>
<path class="st0" d="M73.02,78.08l46.59-9.21c0.73-1.16,1.38-2.36,1.96-3.6L69.83,75.49C70.84,76.42,71.9,77.28,73.02,78.08z"/>
<path class="st0" d="M107.1,22.6c15.24-5.25,27.15-5.74,30.31-0.28c4.83,8.36-12.65,27.48-39.03,42.71S46.7,85.84,41.87,77.48
	c-3.32-5.75,3.9-16.58,17.32-27.74"/>
</svg>
