<?xml version="1.0" encoding="utf-8"?>
<!-- Generator: Adobe Illustrator 23.0.2, SVG Export Plug-In . SVG Version: 6.00 Build 0)  -->
<svg version="1.1" id="Layer_2" xmlns="http://www.w3.org/2000/svg" xmlns:xlink="http://www.w3.org/1999/xlink" x="0px" y="0px"
	 viewBox="0 0 179.55 95.76" style="enable-background:new 0 0 179.55 95.76;" xml:space="preserve">
<style type="text/css">
	.st0{fill:none;stroke:#F47D20;stroke-width:4.252;stroke-miterlimit:10;}
	.st1{fill:none;stroke:#F47D20;stroke-width:4.252;stroke-linecap:round;stroke-linejoin:round;stroke-miterlimit:10;}
</style>
<circle class="st0" cx="91.97" cy="51.52" r="32.63"/>
<g>
	<line class="st1" x1="70.69" y1="37.94" x2="59.95" y2="48.67"/>
	<line class="st1" x1="80.52" y1="39.75" x2="60.56" y2="59.71"/>
	<line class="st1" x1="90.35" y1="41.57" x2="63.92" y2="68"/>
	<line class="st1" x1="100.19" y1="43.38" x2="68.94" y2="74.64"/>
	<line class="st1" x1="102" y1="53.22" x2="75.62" y2="79.6"/>
	<line class="st1" x1="103.82" y1="63.05" x2="83.94" y2="82.94"/>
	<line class="st1" x1="105.64" y1="72.89" x2="94.9" y2="83.62"/>
</g>
<g>
	<line class="st1" x1="96.95" y1="11.67" x2="86.22" y2="22.4"/>
	<line class="st1" x1="106.78" y1="13.49" x2="86.82" y2="33.45"/>
	<line class="st1" x1="116.62" y1="15.3" x2="90.18" y2="41.74"/>
	<line class="st1" x1="126.45" y1="17.12" x2="95.2" y2="48.37"/>
	<line class="st1" x1="128.27" y1="26.95" x2="101.89" y2="53.33"/>
	<line class="st1" x1="130.08" y1="36.79" x2="110.2" y2="56.67"/>
	<line class="st1" x1="131.9" y1="46.62" x2="121.17" y2="57.36"/>
</g>
</svg>
