<?xml version="1.0" encoding="utf-8"?>
<!-- Generator: Adobe Illustrator 23.0.2, SVG Export Plug-In . SVG Version: 6.00 Build 0)  -->
<svg version="1.1" id="Layer_2" xmlns="http://www.w3.org/2000/svg" xmlns:xlink="http://www.w3.org/1999/xlink" x="0px" y="0px"
	 viewBox="0 0 179.55 95.76" style="enable-background:new 0 0 179.55 95.76;" xml:space="preserve">
<style type="text/css">
	.st0{fill:none;stroke:#81D4F7;stroke-width:4.252;stroke-miterlimit:10;}
	.st1{opacity:0.45;fill:#81D4F7;}
	.st2{fill:#FFFFFF;}
	.st3{fill:none;stroke:#FFFFFF;stroke-width:2.8346;stroke-miterlimit:10;}
</style>
<circle class="st0" cx="91.97" cy="48.54" r="32.63"/>
<path class="st1" d="M63.63,32.37c2.3,6.61,4.27,14.35,4.77,20.94c0.43,5.7,0.74,12.66,0.95,18.74c3.46,3.33,7.65,5.9,12.32,7.46
	c0.69-13.71,2.06-47.34-0.22-61.85C73.86,20.24,67.55,25.52,63.63,32.37z"/>
<path class="st1" d="M99.23,80.36c1.41-14.83,4.24-45.87,4.76-62.15c-3.72-1.48-7.78-2.3-12.02-2.3c-0.16,0-0.32,0.01-0.48,0.01
	c0.94,15.22,1.54,51.78,0.94,65.24C94.76,81.13,97.04,80.85,99.23,80.36z"/>
<path class="st0" d="M99.23,80.36c1.41-14.83,4.24-45.87,4.76-62.15c-3.72-1.48-7.78-2.3-12.02-2.3c-0.16,0-0.32,0.01-0.48,0.01
	c0.94,15.22,1.54,51.78,0.94,65.24C94.76,81.13,97.04,80.85,99.23,80.36z"/>
<path class="st0" d="M63.63,32.37c2.3,6.61,4.27,14.35,4.77,20.94c0.43,5.7,0.74,12.66,0.95,18.74c3.46,3.33,7.65,5.9,12.32,7.46
	c0.69-13.71,2.06-47.34-0.22-61.85C73.86,20.24,67.55,25.52,63.63,32.37z"/>
<ellipse class="st2" cx="77.69" cy="30.41" rx="1.66" ry="3.48"/>
<path class="st3" d="M83.57,17C85.4,8.3,88,2.87,90.88,2.87c5.54,0,10.04,20.13,10.04,44.95s-4.49,44.95-10.04,44.95
	c-2.71,0-5.16-4.8-6.97-12.61"/>
<path class="st0" d="M91.97,81.18c-18.02,0-32.63-14.61-32.63-32.63s14.61-32.63,32.63-32.63"/>
</svg>
