<?xml version="1.0" encoding="utf-8"?>
<!-- Generator: Adobe Illustrator 23.0.2, SVG Export Plug-In . SVG Version: 6.00 Build 0)  -->
<svg version="1.1" id="Layer_2" xmlns="http://www.w3.org/2000/svg" xmlns:xlink="http://www.w3.org/1999/xlink" x="0px" y="0px"
	 viewBox="0 0 179.55 95.76" style="enable-background:new 0 0 179.55 95.76;" xml:space="preserve">
<style type="text/css">
	.st0{fill:none;stroke:#BFCB87;stroke-width:4.252;stroke-miterlimit:10;}
</style>
<circle class="st0" cx="91.97" cy="51.52" r="32.63"/>
<path class="st0" d="M80.93,20.8c-4.31,1.55-8.19,3.98-11.44,7.07c7.74,1.32,16.04,1.81,22.69,0.67
	C105.29,26.29,96.62,24.17,80.93,20.8z"/>
<path class="st0" d="M65.55,32.37c-3.23,4.45-5.37,9.75-6.01,15.5c16.31,2.74,48.08,3.01,64.99,1.66
	c-0.32-5.23-1.86-10.12-4.35-14.39C103.39,36.27,78.75,34.61,65.55,32.37z"/>
<path class="st0" d="M59.5,54.73c0.67,6.88,3.48,13.13,7.76,18.08c15.39-0.32,37.49-3.24,53.35-5.63c1.9-3.46,3.18-7.3,3.71-11.37
	C102.27,61.13,75.5,57.4,59.5,54.73z"/>
<path class="st0" d="M84.04,41.34c2.14,5.09,24.7,13.69,40.28,14.45c0.18-1.4,0.29-2.82,0.29-4.27c0-7.35-2.43-14.13-6.53-19.59
	C99.57,34.29,82.09,36.72,84.04,41.34z"/>
<path class="st0" d="M61.23,62.48c2.26,6.33,6.42,11.76,11.79,15.6c21.68,0.54,37.45-8,32.76-14.31
	C102.13,58.87,77.31,62.72,61.23,62.48z"/>
</svg>
